<svg width="214" height="145" viewBox="0 0 214 145" fill="none" xmlns="http://www.w3.org/2000/svg">
<path d="M71.3 44.5118V82.504M50.9 64.2678H88.3M78.1 15.6378H135.9L144.4 5C159.33 5.7273 165.023 8.46399 176.7 17.1575L182.367 24.7559C198.73 46.7596 197.049 60.0224 204.467 85.5434L209 117.457C207.503 133.832 204.488 139.768 190.3 137.213C175.517 121.84 166.037 115.125 147.8 105.299H71.3C51.4268 114.122 40.2918 119.111 22 137.213C11.8298 143.783 6.75685 132.036 5 105.299C13.0729 68.3977 19.084 48.7124 37.3 18.6772C48.8486 8.87568 56.1706 5.56744 71.3 5L78.1 15.6378Z" stroke="#EEEEEE" stroke-width="10" stroke-linecap="round" stroke-linejoin="round"/>
<ellipse cx="142.7" cy="70.3465" rx="8.5" ry="7.59843" fill="#EEEEEE"/>
<ellipse cx="142.7" cy="39.9528" rx="8.5" ry="7.59843" fill="#EEEEEE"/>
<ellipse cx="163.1" cy="55.1496" rx="8.5" ry="7.59843" fill="#EEEEEE"/>
<ellipse cx="125.7" cy="55.1496" rx="8.5" ry="7.59843" fill="#EEEEEE"/>
</svg>
