<svg width="38" height="46" viewBox="0 0 38 46" fill="none" xmlns="http://www.w3.org/2000/svg">
<path d="M22.0419 7.87158C25.9905 10.4734 28.6469 12.0797 30.4398 16.0669L30.7756 28.0184C32.103 31.7533 33.2913 33.1979 35.8143 35.1893C36.1733 36.7747 36.0439 37.4372 35.1425 38.2625H24.3933M22.0419 7.87158C19.4052 7.69607 20.0334 7.70827 16.3313 7.87161M22.0419 7.87158V3.77396C19.672 1.43725 18.4252 1.38027 16.3313 3.77396V7.87161M16.3313 7.87161C12.1995 10.245 9.2917 12.1593 7.59746 16.4084L7.26155 28.0184C5.94553 31.2223 4.8438 32.7933 2.22282 35.1893C1.729 36.8908 2.05217 37.5156 3.23056 38.2625H13.644M24.3933 38.2625V39.9698C20.7515 45.5766 17.4603 45.1051 13.644 39.9698V38.2625M24.3933 38.2625H13.644" stroke="#EEEEEE" stroke-width="3" stroke-linejoin="round"/>
</svg>
