<svg width="442" height="299" viewBox="0 0 442 299" fill="none" xmlns="http://www.w3.org/2000/svg">
<path d="M117.497 15.5243C95.64 6.58822 75.717 21.4511 61.355 44.2481C20.8209 108.588 9.93414 152.252 10.0003 242.703C10.027 279.261 40.9003 300.766 75.2816 279.261C114.403 254.791 103.135 226.011 155.795 212.674C205.305 200.136 224.994 198.748 284.182 212.674C327.703 222.914 335.478 254.551 378.187 279.261C416.05 301.167 431.718 279.261 431.718 242.703C430.39 157.592 409.087 52.0824 374.705 29.451C361.53 20.7785 332.311 0.172446 302.461 15.5243C241.532 46.8598 196.27 47.7302 117.497 15.5243Z" stroke="#EEEEEE" stroke-width="20" stroke-linejoin="round"/>
<path d="M141.571 132.303C141.571 164.445 107.292 164.773 107.292 132.303C77.6273 132.303 75.9792 100.162 107.292 100.162C107.292 67.6925 140.498 71.8008 141.571 100.162C166.951 100.162 172.554 132.303 141.571 132.303Z" stroke="#EEEEEE" stroke-width="20" stroke-linejoin="round"/>
<circle cx="327.703" cy="78.6301" r="12.9548" stroke="#EEEEEE" stroke-width="15"/>
<circle cx="286.793" cy="109.095" r="12.9548" stroke="#EEEEEE" stroke-width="15"/>
<circle cx="368.613" cy="109.095" r="12.9548" stroke="#EEEEEE" stroke-width="15"/>
<circle cx="325.962" cy="148.264" r="12.9548" stroke="#EEEEEE" stroke-width="15"/>
</svg>
