<svg width="401" height="401" viewBox="0 0 401 401" fill="none" xmlns="http://www.w3.org/2000/svg">
<circle cx="298.478" cy="292.282" r="32.2464" stroke="#EEEEEE" stroke-width="30"/>
<path d="M71.05 109.88C71.05 91.0835 85.8286 76.4718 103.296 76.4718C120.764 76.4718 135.543 91.0835 135.543 109.88C135.543 128.676 120.764 143.288 103.296 143.288C85.8286 143.288 71.05 128.676 71.05 109.88Z" stroke="#EEEEEE" stroke-width="30"/>
<path d="M223.349 386V15H322.489C362.764 15 385.613 42.4958 385.613 84.7077V313.581C385.613 354.244 363.539 386 319.778 386H223.349Z" stroke="#EEEEEE" stroke-width="30"/>
<path d="M178.426 14.9999V386H78.5761C38.0121 386 14.9999 358.504 14.9999 316.292V87.4185C14.9999 46.7557 37.232 14.9999 81.3063 14.9999H178.426Z" stroke="#EEEEEE" stroke-width="30"/>
</svg>
